<?xml version="1.0" standalone="no"?>
<!DOCTYPE svg PUBLIC "-//W3C//DTD SVG 20010904//EN"
 "http://www.w3.org/TR/2001/REC-SVG-20010904/DTD/svg10.dtd">
<svg version="1.0" xmlns="http://www.w3.org/2000/svg"
 width="256.000000pt" height="256.000000pt" viewBox="0 0 256.000000 256.000000"
 preserveAspectRatio="xMidYMid meet">
<metadata>
Created by potrace 1.11, written by Peter Selinger 2001-2013
</metadata>
<g transform="translate(0.000000,256.000000) scale(0.100000,-0.100000)"
fill="#000000" stroke="none">
<path d="M422 1853 c-40 -19 -65 -64 -65 -115 0 -32 11 -51 67 -120 37 -45 65
-89 64 -97 -3 -14 -33 -16 -221 -19 l-217 -2 0 -61 0 -60 258 3 c233 3 260 5
285 22 59 40 74 118 34 177 -13 19 -41 58 -62 88 -58 81 -51 85 129 89 l146 3
0 -191 0 -190 70 0 70 0 0 190 0 190 115 0 115 0 0 55 0 55 -377 0 c-329 0
-382 -3 -411 -17z"/>
<path d="M1344 1855 c-29 -74 -150 -465 -146 -470 3 -3 33 -5 67 -5 l62 0 19
53 19 52 100 3 100 3 20 -53 21 -53 67 -3 c37 -2 67 0 67 4 0 3 -37 114 -82
245 l-83 239 -113 0 c-92 0 -114 -3 -118 -15z m171 -234 c6 -20 3 -21 -54 -21
l-60 0 25 73 c13 39 27 79 30 87 5 13 26 -36 59 -139z"/>
<path d="M1850 1625 l0 -246 73 3 72 3 5 85 5 85 80 -76 c44 -42 90 -81 102
-88 13 -7 80 -11 172 -11 l151 0 0 60 0 60 -113 0 -113 0 -34 35 c-18 19 -32
36 -29 38 2 2 17 11 32 21 95 59 87 205 -14 256 -34 18 -59 20 -214 20 l-175
0 0 -245z m321 116 c20 -16 22 -23 14 -47 -10 -29 -12 -29 -98 -32 l-87 -3 0
51 0 50 74 0 c58 0 79 -4 97 -19z"/>
<path d="M78 1174 c-3 -3 30 -113 74 -245 l80 -239 48 0 48 0 48 141 c55 163
48 165 110 -24 l39 -118 49 3 49 3 79 235 c43 129 78 238 78 243 0 4 -32 7
-72 5 l-72 -3 -30 -92 c-17 -51 -33 -93 -36 -93 -3 0 -19 42 -36 93 l-30 92
-76 3 -76 3 -31 -87 c-18 -48 -35 -93 -39 -101 -5 -8 -20 25 -41 87 l-32 100
-63 0 c-34 0 -65 -3 -68 -6z"/>
<path d="M930 1176 c0 -2 -34 -109 -75 -237 -41 -129 -75 -237 -75 -241 0 -5
29 -8 64 -8 l63 0 19 53 19 52 101 3 100 3 18 -56 17 -55 71 0 c52 0 69 3 66
13 -3 6 -40 117 -82 245 l-78 232 -114 0 c-63 0 -114 -2 -114 -4z m170 -258
c0 -4 -25 -8 -55 -8 -30 0 -55 3 -55 7 0 4 12 44 27 90 l27 84 28 -82 c16 -46
28 -87 28 -91z"/>
<path d="M1440 940 l0 -240 75 0 75 0 0 86 0 87 90 -87 89 -86 265 0 264 0 31
26 c37 31 56 90 41 128 -5 15 -35 58 -66 96 -81 100 -77 104 79 108 l127 3 0
59 0 60 -152 0 c-175 0 -217 -8 -252 -51 -56 -66 -48 -103 40 -203 96 -110 95
-110 -108 -114 l-166 -2 -31 37 c-28 33 -29 38 -14 44 30 11 71 59 84 96 15
45 4 95 -28 133 -47 56 -65 60 -263 60 l-180 0 0 -240z m330 101 c14 -28 13
-38 -10 -61 -16 -16 -33 -20 -95 -20 l-75 0 0 50 0 50 85 0 c73 0 86 -3 95
-19z"/>
</g>
</svg>
